<svg xmlns="http://www.w3.org/2000/svg" xmlns:xlink="http://www.w3.org/1999/xlink" version="1.1" x="0px" y="0px" viewBox="0 0 96 120" enable-background="new 0 0 96 96" xml:space="preserve"><path d="M36.004,25c0,5.523-4.477,10-10,10s-10-4.477-10-10s4.477-10,10-10S36.004,19.477,36.004,25z"/><path d="M24.004,39v4c0,1.104,0.896,2,2,2s2-0.896,2-2v-4c0-1.104-0.896-2-2-2S24.004,37.896,24.004,39z"/><path d="M26.004,13c1.104,0,2-0.896,2-2V7c0-1.104-0.896-2-2-2s-2,0.896-2,2v4C24.004,12.104,24.904,13,26.004,13z"/><path d="M38.004,25c0,1.104,0.896,2,2,2h4c1.104,0,2-0.896,2-2s-0.896-2-2-2h-4C38.904,23,38.004,23.896,38.004,25z"/><path d="M8.004,27h4c1.104,0,2-0.896,2-2s-0.896-2-2-2h-4c-1.104,0-2,0.896-2,2S6.904,27,8.004,27z"/><path d="M34.492,33.488c-0.78,0.78-0.78,2.048,0,2.828l2.828,2.828c0.392,0.392,0.904,0.584,1.416,0.584  c0.512,0,1.024-0.196,1.416-0.584c0.78-0.78,0.78-2.048,0-2.828l-2.828-2.828C36.536,32.704,35.268,32.704,34.492,33.488z"/><path d="M14.688,16.516c0.392,0.392,0.904,0.588,1.416,0.588s1.024-0.196,1.416-0.584c0.78-0.78,0.78-2.048,0-2.828l-2.828-2.832  c-0.776-0.784-2.048-0.78-2.832-0.004c-0.784,0.78-0.784,2.048,0,2.828L14.688,16.516z"/><path d="M35.908,17.104c0.512,0,1.024-0.196,1.416-0.588l2.828-2.832c0.78-0.78,0.78-2.048,0-2.828  c-0.78-0.776-2.052-0.78-2.832,0.004l-2.828,2.832c-0.78,0.78-0.78,2.048,0,2.828C34.884,16.908,35.396,17.104,35.908,17.104z"/><path d="M14.688,33.488l-2.828,2.828c-0.784,0.78-0.784,2.048,0,2.828c0.388,0.392,0.904,0.584,1.416,0.584  c0.512,0,1.024-0.196,1.416-0.584l2.828-2.828c0.78-0.78,0.78-2.048,0-2.828C16.744,32.708,15.476,32.704,14.688,33.488z"/><path d="M92.008,83h-12V67c0-0.1-0.056-0.184-0.064-0.284l10.201-10.2c1.567-1.56,1.567-4.092,0-5.656  c-1.568-1.563-4.088-1.563-5.656,0L61.859,73.492c-1.563,1.564-1.563,4.092,0,5.656c0.781,0.779,1.805,1.172,2.828,1.172  c1.024,0,2.049-0.393,2.828-1.172l4.488-4.488V83h-16V67c0-0.1-0.052-0.184-0.061-0.284l10.197-10.2c1.567-1.56,1.567-4.092,0-5.656  c-1.564-1.563-4.089-1.563-5.656,0L37.856,73.492c-1.564,1.564-1.564,4.092,0,5.656c0.78,0.779,1.804,1.172,2.828,1.172  s2.048-0.393,2.828-1.172L48,74.66V83H32V67c0-0.1-0.052-0.184-0.06-0.284l10.2-10.2c1.564-1.56,1.564-4.092,0-5.656  c-1.564-1.563-4.092-1.563-5.656,0L13.856,73.492c-1.564,1.564-1.564,4.092,0,5.656c0.78,0.779,1.804,1.172,2.828,1.172  s2.048-0.393,2.828-1.172L24,74.66V83H4c-2.208,0-4,1.792-4,4s1.792,4,4,4h88c2.208,0,4-1.792,4-4S94.212,83,92.008,83L92.008,83z"/><text x="0" y="111" fill="#000000" font-size="5px" font-weight="bold" font-family="'Helvetica Neue', Helvetica, Arial-Unicode, Arial, Sans-serif">Created by iconsmind.com</text><text x="0" y="116" fill="#000000" font-size="5px" font-weight="bold" font-family="'Helvetica Neue', Helvetica, Arial-Unicode, Arial, Sans-serif">from the Noun Project</text></svg>